<?xml version="1.0" standalone="no"?>
<!DOCTYPE svg PUBLIC "-//W3C//DTD SVG 20010904//EN"
 "http://www.w3.org/TR/2001/REC-SVG-20010904/DTD/svg10.dtd">
<svg version="1.0" xmlns="http://www.w3.org/2000/svg"
 width="700.000000pt" height="700.000000pt" viewBox="0 0 700.000000 700.000000"
 preserveAspectRatio="xMidYMid meet">
<metadata>
Created by potrace 1.14, written by Peter Selinger 2001-2017
</metadata>
<g transform="translate(0.000000,700.000000) scale(0.100000,-0.100000)"
fill="#000000" stroke="none">
<path d="M0 3500 l0 -3500 3500 0 3500 0 0 3500 0 3500 -3500 0 -3500 0 0
-3500z m3598 2307 c12 -13 386 -788 831 -1722 l808 -1700 228 -5 227 -5 24
-28 24 -28 0 -544 0 -543 -26 -31 -26 -31 -613 0 -614 0 -24 23 c-15 13 -354
712 -838 1725 l-813 1702 -358 0 -358 0 -32 29 -33 29 -3 509 c-2 279 0 528 3
552 4 26 16 53 30 67 l24 24 759 0 759 0 21 -23z m-919 -1824 c36 -34 641
-1277 641 -1317 0 -33 -667 -1443 -697 -1474 l-22 -22 -644 0 -644 0 -27 26
c-17 18 -26 37 -26 60 0 44 1269 2699 1306 2732 35 30 77 28 113 -5z"/>
<path d="M2197 5643 c-4 -3 -7 -192 -7 -420 l0 -413 335 0 c275 0 341 -3 364
-15 22 -11 43 -45 90 -142 34 -70 403 -841 819 -1713 l758 -1585 497 -3 497
-2 0 419 0 420 -204 3 c-180 3 -206 5 -224 21 -11 10 -381 777 -822 1705 -441
928 -809 1697 -816 1710 l-14 22 -634 0 c-348 0 -636 -3 -639 -7z"/>
<path d="M2587 3624 c-90 -180 -1077 -2253 -1077 -2263 0 -17 984 -15 997 2
13 16 613 1286 613 1297 0 8 -487 1021 -495 1028 -2 2 -19 -27 -38 -64z"/>
</g>
</svg>
